<svg data-v-423bf9ae="" xmlns="http://www.w3.org/2000/svg" viewBox="0 0 570.6639587690348 163" class="iconAbove"><!----><!----><!----><g data-v-423bf9ae="" id="4813031e-7ad6-4dc5-9d13-d47ba61266fb" fill="#000000" transform="matrix(6.036217212677002,0,0,6.036217212677002,-3.1992080211639404,77.708251953125)"><path d="M8.12 12.87C9.62 12.18 10.57 10.71 10.57 8.90C10.57 6.17 8.43 4.19 5.56 4.19C2.65 4.19 0.53 6.24 0.53 9.09C0.53 11.94 2.65 14 5.56 14L10.75 14L10.75 12.57ZM2.09 9.11C2.09 7.06 3.54 5.59 5.56 5.59C7.59 5.59 9.04 7.06 9.04 9.11C9.04 11.16 7.59 12.64 5.56 12.64C3.54 12.64 2.09 11.16 2.09 9.11ZM18.26 7.11L16.83 7.11L16.83 11.16C16.83 12.24 16.14 12.94 15.11 12.94C14.07 12.94 13.40 12.24 13.40 11.16L13.40 7.11L11.97 7.11L11.97 11.16C11.97 12.92 13.24 14.13 15.12 14.13C16.98 14.13 18.26 12.92 18.26 11.16ZM21.57 5.25C21.57 4.75 21.20 4.41 20.66 4.41C20.12 4.41 19.75 4.75 19.75 5.25C19.75 5.74 20.12 6.09 20.66 6.09C21.20 6.09 21.57 5.74 21.57 5.25ZM19.95 7.11L19.95 14L21.38 14L21.38 7.11ZM26.73 6.99C25.77 6.99 25.00 7.41 24.56 8.15L24.56 7.11L23.13 7.11L23.13 14L24.56 14L24.56 9.97C24.56 8.86 25.24 8.13 26.31 8.13C27.34 8.13 28.01 8.86 28.01 9.97L28.01 14L29.46 14L29.46 9.77C29.46 8.11 28.31 6.99 26.73 6.99ZM41.93 14L43.58 14L39.82 4.31L37.97 4.31L34.22 14L35.85 14L36.62 11.91L41.16 11.91ZM37.09 10.65L38.89 5.80L40.70 10.65ZM47.12 6.99C45.51 6.99 44.42 7.81 44.42 9.06C44.42 10.68 46.06 10.99 47.10 11.14C47.88 11.28 48.57 11.40 48.57 12.11C48.57 12.68 47.99 13.06 47.19 13.06C46.34 13.06 45.72 12.63 45.70 11.97L44.30 11.97C44.31 13.24 45.49 14.13 47.15 14.13C48.80 14.13 49.98 13.27 49.98 12.03C49.98 10.37 48.24 10.08 47.26 9.90C46.47 9.74 45.84 9.63 45.84 8.92C45.84 8.40 46.37 8.04 47.10 8.04C47.89 8.04 48.44 8.46 48.47 9.07L49.81 9.07C49.81 7.84 48.69 6.99 47.12 6.99ZM55.02 6.99C54.07 6.99 53.30 7.41 52.85 8.15L52.85 4.31L51.42 4.31L51.42 14L52.85 14L52.85 9.97C52.85 8.86 53.54 8.13 54.60 8.13C55.64 8.13 56.31 8.86 56.31 9.97L56.31 14L57.75 14L57.75 9.77C57.75 8.11 56.60 6.99 55.02 6.99ZM68.24 7.11L66.57 12.82L64.88 7.11L63.56 7.11L61.87 12.82L60.20 7.11L58.72 7.11L60.84 14L62.66 14L64.22 9.11L65.77 14L67.59 14L69.72 7.11ZM73.95 6.99C71.82 6.99 70.27 8.48 70.27 10.56C70.27 12.63 71.82 14.13 73.95 14.13C76.08 14.13 77.62 12.63 77.62 10.56C77.62 8.48 76.08 6.99 73.95 6.99ZM73.93 8.23C75.22 8.23 76.15 9.21 76.15 10.56C76.15 11.91 75.22 12.88 73.93 12.88C72.66 12.88 71.74 11.91 71.74 10.56C71.74 9.21 72.66 8.23 73.93 8.23ZM80.40 8.72L80.40 7.11L78.97 7.11L78.97 14L80.40 14L80.40 10.60C80.40 9.18 81.40 8.34 82.99 8.34L82.99 6.93C81.77 6.93 80.86 7.59 80.40 8.72ZM87.64 7.11L86.09 7.11L86.09 5.33L84.64 5.33L84.64 7.11L83.37 7.11L83.37 8.32L84.64 8.32L84.64 14L86.09 14L86.09 8.32L87.64 8.32ZM92.34 6.99C91.39 6.99 90.62 7.41 90.17 8.15L90.17 4.31L88.75 4.31L88.75 14L90.17 14L90.17 9.97C90.17 8.86 90.86 8.13 91.92 8.13C92.96 8.13 93.63 8.86 93.63 9.97L93.63 14L95.07 14L95.07 9.77C95.07 8.11 93.93 6.99 92.34 6.99Z"></path></g><defs data-v-423bf9ae=""><linearGradient data-v-423bf9ae="" gradientTransform="rotate(25)" id="4d1fa95c-7795-4712-8659-a62c43686372" x1="0%" y1="0%" x2="100%" y2="0%"><stop data-v-423bf9ae="" offset="0%" style="stop-color: rgb(0, 10, 104); stop-opacity: 1;"></stop><stop data-v-423bf9ae="" offset="100%" style="stop-color: rgb(0, 196, 238); stop-opacity: 1;"></stop></linearGradient></defs><g data-v-423bf9ae="" id="d5e98333-4c45-4bfc-afc9-3553b0974a49" transform="matrix(1.0967317819595337,0,0,1.0967317819595337,236.112060546875,-3.3839282989501953)" stroke="none" fill="url(#4d1fa95c-7795-4712-8659-a62c43686372)"><path d="M38.182 57.753L20.18 47.91v-5.455l18.002-9.803v6.422l-12.557 6.039 12.557 6.266zM39.848 62.08l6.503-34.162h3.785L43.56 62.08zM51.8 57.78V51.4l12.572-6.219L51.8 39.028v-6.332L69.82 42.5v5.41z"></path><path d="M44.999 86.031L9.465 65.517V24.484L44.999 3.969l35.536 20.516v41.029L44.999 86.031zM13.07 63.434l31.929 18.434L76.93 63.434V26.566L44.999 8.131 13.07 26.565v36.869z"></path></g><!----></svg>